<svg width="512" height="512" viewBox="0 0 512 512" fill="none" xmlns="http://www.w3.org/2000/svg">
<g clip-path="url(#clip0_344_108)">
<rect width="512" height="512" rx="20" fill="#F5F5F2"/>
<path d="M168.996 302.664C164.047 302.664 159.289 301.896 154.724 300.36C150.201 298.781 146.233 296.541 142.82 293.64C139.407 290.696 136.953 287.176 135.46 283.08L150.116 277.704C150.713 279.411 151.929 280.968 153.764 282.376C155.599 283.784 157.839 284.915 160.484 285.768C163.129 286.621 165.967 287.048 168.996 287.048C172.111 287.048 175.012 286.579 177.7 285.64C180.431 284.659 182.628 283.315 184.292 281.608C185.956 279.859 186.788 277.832 186.788 275.528C186.788 273.181 185.913 271.261 184.164 269.768C182.415 268.232 180.175 267.016 177.444 266.12C174.713 265.224 171.897 264.541 168.996 264.072C162.639 263.091 156.943 261.576 151.908 259.528C146.873 257.48 142.884 254.643 139.94 251.016C137.039 247.389 135.588 242.696 135.588 236.936C135.588 231.517 137.145 226.781 140.26 222.728C143.375 218.675 147.471 215.517 152.548 213.256C157.625 210.995 163.108 209.864 168.996 209.864C173.903 209.864 178.639 210.632 183.204 212.168C187.769 213.704 191.759 215.944 195.172 218.888C198.628 221.832 201.103 225.373 202.596 229.512L187.876 234.824C187.279 233.117 186.063 231.56 184.228 230.152C182.393 228.744 180.153 227.635 177.508 226.824C174.863 225.971 172.025 225.544 168.996 225.544C165.967 225.501 163.087 225.992 160.356 227.016C157.668 227.997 155.471 229.341 153.764 231.048C152.057 232.755 151.204 234.717 151.204 236.936C151.204 239.795 151.993 241.949 153.572 243.4C155.193 244.851 157.348 245.917 160.036 246.6C162.724 247.24 165.711 247.837 168.996 248.392C174.969 249.331 180.495 250.909 185.572 253.128C190.649 255.347 194.724 258.312 197.796 262.024C200.868 265.693 202.404 270.195 202.404 275.528C202.404 280.947 200.868 285.704 197.796 289.8C194.724 293.853 190.649 297.011 185.572 299.272C180.495 301.533 174.969 302.664 168.996 302.664ZM214.055 301L231.463 211.4H244.391L266.215 268.808L288.039 211.4H300.967L318.375 301H302.439L291.687 245.576L271.527 298.952H260.839L240.679 245.576L229.991 301H214.055ZM328.745 301V211.4H381.673V227.016H344.361V245.192H375.529V260.808H344.361V301H328.745Z" fill="#111111"/>
</g>
<defs>
<clipPath id="clip0_344_108">
<rect width="512" height="512" rx="20" fill="white"/>
</clipPath>
</defs>
</svg>
